<svg xmlns="http://www.w3.org/2000/svg" version="1.1" xmlns:xlink="http://www.w3.org/1999/xlink" xmlns:svgjs="http://svgjs.dev/svgjs" width="1440" height="560" preserveAspectRatio="none" viewBox="0 0 1440 560"><g mask="url(&quot;#SvgjsMask1010&quot;)" fill="none"><rect width="1440" height="560" x="0" y="0" fill="#0e2a47"></rect><path d="M -138.2946334011259,227 C -42.29,249.6 149.71,354.6 341.7053665988741,340 C 533.71,325.4 629.71,124.8 821.7053665988741,154 C 1013.71,183.2 1109.71,474.8 1301.7053665988742,486 C 1493.71,497.2 1754.05,249.6 1781.7053665988742,210 C 1809.36,170.4 1508.34,272.4 1440,288" stroke="rgba(51, 121, 194, 0.58)" stroke-width="2"></path><path d="M -645.5191001877895,132 C -549.52,193.6 -357.52,449.6 -165.51910018778955,440 C 26.48,430.4 122.48,106.2 314.48089981221045,84 C 506.48,61.8 602.48,332.4 794.4808998122105,329 C 986.48,325.6 1145.38,50.8 1274.4808998122105,67 C 1403.58,83.2 1406.9,341.4 1440,410" stroke="rgba(51, 121, 194, 0.58)" stroke-width="2"></path><path d="M -11.226578834252791,120 C 84.77,166.4 276.77,323.2 468.7734211657472,352 C 660.77,380.8 756.77,244.4 948.7734211657472,264 C 1140.77,283.6 1236.77,469.6 1428.773421165747,450 C 1620.77,430.4 1906.53,166.2 1908.773421165747,166 C 1911.02,165.8 1533.75,392.4 1440,449" stroke="rgba(51, 121, 194, 0.58)" stroke-width="2"></path><path d="M -298.04810056783896,494 C -202.05,434.2 -10.05,199.2 181.95189943216104,195 C 373.95,190.8 469.95,456.4 661.9518994321611,473 C 853.95,489.6 949.95,288.4 1141.951899432161,278 C 1333.95,267.6 1562.34,455.2 1621.951899432161,421 C 1681.56,386.8 1476.39,169.8 1440,107" stroke="rgba(51, 121, 194, 0.58)" stroke-width="2"></path></g><defs><mask id="SvgjsMask1010"><rect width="1440" height="560" fill="#ffffff"></rect></mask></defs></svg>